<svg xmlns="http://www.w3.org/2000/svg" x="0px" y="0px"
width="50" height="50"
viewBox="0 0 172 172"
style=" fill:#000000;">
<g transform="">
<g
    fill="none"
    fill-rule="nonzero"
    stroke="none"
    stroke-width="1"
    stroke-linecap="butt"
    stroke-linejoin="miter"
    stroke-miterlimit="10"
    stroke-dasharray=""
    stroke-dashoffset="0"
    font-family="none"
    font-weight="none"
    font-size="none"
    text-anchor="none"
    style="mix-blend-mode: normal"
>
<path d="M0,172v-172h172v172z" fill="none"></path>
<path
    d="M86,172c-47.49649,0 -86,-38.50351 -86,-86v0c0,-47.49649 38.50351,-86 86,-86v0c47.49649,0 86,38.50351 86,86v0c0,47.49649 -38.50351,86 -86,86z"
    fill="none">
</path>
<path
    d="M86,168.56c-45.59663,0 -82.56,-36.96337 -82.56,-82.56v0c0,-45.59663 36.96337,-82.56 82.56,-82.56v0c45.59663,0 82.56,36.96337 82.56,82.56v0c0,45.59663 -36.96337,82.56 -82.56,82.56z"
    fill="none">
</path>
<path
    d=""
    fill="none"
    >
</path>
<path
    d="M0,172v-172h172v172z"
    fill="none">
</path>
<path
    d="M3.44,168.56v-165.12h165.12v165.12z"
    fill="none"
></path>
<gfill="#000000">
<g id="surface1">
<path
    d="M96.18563,10.25281c-1.78719,0.05375 -3.48031,0.80625 -4.73,2.08281l-73.66438,73.66437l73.66438,73.66438c1.72,1.80062 4.28656,2.52625 6.70531,1.89469c2.40531,-0.63156 4.28656,-2.51281 4.91813,-4.91813c0.63156,-2.41875 -0.09406,-4.98531 -1.89469,-6.70531l-63.93563,-63.93563l63.93563,-63.93562c2.02906,-1.97531 2.64719,-4.99875 1.54531,-7.61906c-1.11531,-2.60688 -3.70875,-4.27313 -6.54406,-4.1925zM140.90563,10.25281c-1.78719,0.05375 -3.48031,0.80625 -4.73,2.08281l-73.66438,73.66437l73.66438,73.66438c1.72,1.80062 4.28656,2.52625 6.70531,1.89469c2.40531,-0.63156 4.28656,-2.51281 4.91813,-4.91813c0.63156,-2.41875 -0.09406,-4.98531 -1.89469,-6.70531l-63.93563,-63.93563l63.93563,-63.93562c2.02906,-1.97531 2.64719,-4.99875 1.54531,-7.61906c-1.11531,-2.60688 -3.70875,-4.27313 -6.54406,-4.1925z">
</path>
</g>
</g>
</g>
</g>
</svg>